<mxfile host="app.diagrams.net" modified="2023-07-03T17:33:26.941Z" agent="Mozilla/5.0 (X11; Linux x86_64) AppleWebKit/537.36 (KHTML, like Gecko) Chrome/114.0.0.0 Safari/537.36" version="21.5.2" etag="ZGnRG44Ho-kCiTLuRpin" type="github">
  <diagram name="PÃ¡gina-1" id="X0sl-VXpa4b3NNcXySZ4">
    <mxGraphModel>
      <root>
        <mxCell id="0" />
        <mxCell id="1" parent="0" />
      </root>
    </mxGraphModel>
  </diagram>
</mxfile>
